<?xml version="1.0" standalone="no"?>
<!DOCTYPE svg PUBLIC "-//W3C//DTD SVG 20010904//EN"
 "http://www.w3.org/TR/2001/REC-SVG-20010904/DTD/svg10.dtd">
<svg version="1.0" xmlns="http://www.w3.org/2000/svg"
 width="96.000000pt" height="96.000000pt" viewBox="0 0 96.000000 96.000000"
 preserveAspectRatio="xMidYMid meet">
<metadata>
Created by potrace 1.14, written by Peter Selinger 2001-2017
</metadata>
<g transform="translate(0.000000,96.000000) scale(0.100000,-0.100000)"
fill="#000000" stroke="none">
<path d="M325 818 c-9 -22 -15 -23 -88 -20 l-78 4 -10 -31 c-10 -27 -15 -31
-50 -31 l-39 0 0 -290 0 -290 168 0 c150 0 170 -2 197 -20 17 -11 41 -20 55
-20 14 0 39 9 55 20 27 18 47 20 198 20 l167 0 0 290 0 290 -39 0 c-35 0 -40
3 -50 31 l-11 31 -95 -6 c-108 -7 -179 -22 -196 -42 -13 -16 -45 -18 -54 -4
-4 6 -29 20 -56 32 -33 15 -49 28 -49 40 0 25 -13 23 -25 -4z"/>
</g>
</svg>
